# xmcd
#
# Track frame offsets:
#	150
#	13089
#	29133
#	42955
#	58115
#	75865
#	89453
#	105015
#	119481
#	136671
#	153683
#	171304
#	182146
#	194519
#
# Disc length: 2752 seconds
#
# Revision: 1
# Processed by: cddbd v1.5.2PL0 Copyright (c) Steve Scherf et al.
# Submitted via: audiograbber 1.83.01
#
DISCID=b70abe0e
DTITLE=Olivia Smiley and Main Street - Bright Lights and Avenues
DYEAR=2008
DGENRE=Country
TTITLE0=Arkansas
TTITLE1=We'll Meet Again Sweetheart
TTITLE2=Love Left for You
TTITLE3=Gone Again
TTITLE4=I Hope We Always Dance This Way
TTITLE5=Maybe I'll Agree
TTITLE6=A Prisoner's Tale
TTITLE7=Seems Like Yesterday
TTITLE8=Love Me Tonight
TTITLE9=I'll Be Home
TTITLE10=Roses On My Mind
TTITLE11=Bitter Creek
TTITLE12=Windy City
TTITLE13=Mountain Laurel
EXTD=
EXTT0=
EXTT1=
EXTT2=
EXTT3=
EXTT4=
EXTT5=
EXTT6=
EXTT7=
EXTT8=
EXTT9=
EXTT10=
EXTT11=
EXTT12=
EXTT13=
PLAYORDER=
